<svg id="Capa_1" data-name="Capa 1" xmlns="http://www.w3.org/2000/svg" viewBox="0 0 500 250"><defs><style>.cls-1{fill:#002e6d;}.cls-2{fill:#ffe800;}.cls-3{fill:#fff;}</style></defs><path class="cls-1" d="M178.63,123c0-29.57-36.74-53.68-82.07-53.68S14.49,93.4,14.49,123c0,.76,0,2.88,0,3.14,0,31.38,32.11,56.79,82.07,56.79,50.26,0,82.08-25.41,82.08-56.78Z"/><path class="cls-2" d="M175.49,122.94c0,27.88-35.34,50.49-78.92,50.49s-78.91-22.61-78.91-50.49S53,72.46,96.57,72.46,175.49,95.06,175.49,122.94Z"/><path class="cls-3" d="M70.37,107c0,.08-.83.89-.32,1.55,1.25,1.59,5.09,2.5,9,1.63,2.32-.52,5.29-2.89,8.16-5.17,3.12-2.47,6.21-5,9.32-5.94a10.61,10.61,0,0,1,6.79-.17c1.53.45,3.33,1.46,6.19,3.61,5.4,4.06,27.12,23,30.87,26.29a186.36,186.36,0,0,1,34.69-11.17c-1.58-9.73-7.5-18.63-16.48-25.92-12.5,5.26-27.79,8-42.74.7-.07,0-8.16-3.86-16.14-3.68-11.86.28-17,5.41-22.44,10.85Z"/><path class="cls-3" d="M139.47,130.88c-.25-.23-25.53-22.35-31.25-26.65-3.31-2.48-5.16-3.12-7.09-3.37a9.66,9.66,0,0,0-3.38.33c-2.66.72-6.14,3-9.23,5.5s-6.22,5-9,5.58c-3.57.8-7.94-.14-9.94-1.49A4.41,4.41,0,0,1,67.9,109a3.07,3.07,0,0,1,.85-3.3l7-7.55c.81-.81,1.63-1.62,2.46-2.41a43.68,43.68,0,0,0-6.35,1.43,27.83,27.83,0,0,1-7.42,1.38,71.57,71.57,0,0,1-7.57-1.18,113.77,113.77,0,0,1-20.13-7.27c-9.91,7.38-16.54,16.61-18.46,26.77,1.43.38,3.72,1.06,4.69,1.28,22.44,5,29.43,10.13,30.69,11.2a7.43,7.43,0,0,1,11.65.68,8.48,8.48,0,0,1,5.34-1.88,10,10,0,0,1,3.21.56,7.41,7.41,0,0,1,4.52,4.08,7.58,7.58,0,0,1,3.12-.66,9.5,9.5,0,0,1,3.73.82c4.14,1.78,4.79,5.84,4.41,8.91a6.55,6.55,0,0,1,.89-.05,8.91,8.91,0,0,1,8.9,8.9,8.79,8.79,0,0,1-1.07,4.2c1.34.75,4.74,2.45,7.73,2.07,2.38-.31,3.29-1.12,3.61-1.58.23-.31.46-.68.24-1l-6.33-7s-1-1-.7-1.37,1,.17,1.46.55c3.22,2.7,7.15,6.76,7.15,6.76s.33.55,1.79.81a6.54,6.54,0,0,0,5-1.16,7.36,7.36,0,0,0,1.1-1.13l-.07.06a3.37,3.37,0,0,0-.18-4.17l-7.39-8.3s-1.06-1-.7-1.37,1,.17,1.46.56c2.35,2,5.65,5.28,8.82,8.38.62.45,3.41,2.17,7.09-.25a5.09,5.09,0,0,0,2.63-4.63,5.3,5.3,0,0,0-1.56-3.08l-10.1-10.15s-1.07-.92-.69-1.38,1,.17,1.45.55c3.22,2.7,11.93,10.68,11.93,10.68a6.11,6.11,0,0,0,6.85-.14,4.56,4.56,0,0,0,2.25-3.62A5.32,5.32,0,0,0,139.47,130.88Z"/><path class="cls-3" d="M90.5,143.74c-1.56,0-3.28.92-3.5.78s.09-.71.24-1.07,2.21-6.57-2.81-8.72c-3.85-1.65-6.2.21-7,1-.21.23-.3.21-.33-.07a5.52,5.52,0,0,0-3.9-5.15,7.57,7.57,0,0,0-8.56,3,5.5,5.5,0,1,0-5.44,6.2A5.43,5.43,0,0,0,63,138.27s0,.08,0,.18c-.23,1.36-.65,6.31,4.53,8.33a5.41,5.41,0,0,0,5.31-.82c.44-.31.51-.18.44.23-.18,1.27,0,4,3.87,5.55a4.92,4.92,0,0,0,5.76-1.07c.49-.45.62-.38.65.31a6.93,6.93,0,1,0,6.92-7.24Z"/><path class="cls-1" d="M140.45,128.23c-7.78-6.8-25.78-22.44-30.65-26.1-2.78-2.09-4.68-3.2-6.35-3.69a10.37,10.37,0,0,0-3.12-.49,13.21,13.21,0,0,0-4,.67c-3.15,1-6.29,3.49-9.32,5.9l-.16.12c-2.83,2.25-5.75,4.58-8,5.07a13.27,13.27,0,0,1-3,.33c-2.47,0-4.7-.72-5.53-1.78-.14-.18,0-.46.27-.87l0-.06L77.61,100C83,94.59,88,89.52,99.71,89.25h.58c7.26,0,14.52,3.25,15.33,3.63a47.58,47.58,0,0,0,20.9,5c7.36,0,14.95-1.82,22.94-5.5-.89-.75-1.82-1.48-2.77-2.19a50.57,50.57,0,0,1-20.15,4.57A44.49,44.49,0,0,1,117,90.07c-.33-.16-8.35-3.94-16.69-3.95h-.65c-9.8.23-15.32,3.71-19,6.76a37.44,37.44,0,0,0-9.49,1.73,25.69,25.69,0,0,1-6.69,1.28c-.86,0-2.41-.08-2.54-.08-2.4-.08-14.46-3-24.06-6.67-1,.7-1.92,1.41-2.84,2.14,10,4.11,22.23,7.29,26.08,7.54,1.07.07,2.21.19,3.35.19A28.42,28.42,0,0,0,72,97.62c1.45-.41,3.06-.85,4.74-1.17l-1.34,1.34-7,7.53a3.49,3.49,0,0,0-1,3.84,4.89,4.89,0,0,0,1.83,2,14.56,14.56,0,0,0,7.39,1.88,13.74,13.74,0,0,0,2.94-.31c2.92-.66,6-3.09,9.22-5.67,2.59-2,6.26-4.66,9.06-5.42a10.08,10.08,0,0,1,2.53-.35,4.45,4.45,0,0,1,.65,0c1.86.23,3.65.86,6.86,3.27,5.71,4.29,31,26.4,31.23,26.62a4.89,4.89,0,0,1,1.52,3.72,4.07,4.07,0,0,1-2,3.23,6.18,6.18,0,0,1-3.32,1,5.58,5.58,0,0,1-2.93-.85c-.09-.08-8.75-8-11.94-10.69a2.63,2.63,0,0,0-1.5-.79.81.81,0,0,0-.66.31c-.5.61.06,1.47.72,2l10.12,10.17a4.77,4.77,0,0,1,1.4,2.74,4.63,4.63,0,0,1-2.4,4.2,6.6,6.6,0,0,1-3.59,1.18,5.28,5.28,0,0,1-2.88-.87l-1.46-1.43c-2.65-2.62-5.39-5.31-7.39-7a2.73,2.73,0,0,0-1.51-.78.87.87,0,0,0-.64.27c-.23.26-.38.71.19,1.47a4.75,4.75,0,0,0,.51.57l7.38,8.29a2.83,2.83,0,0,1,.16,3.54l-.25.33a8.33,8.33,0,0,1-.69.66,5.88,5.88,0,0,1-3.61,1.15,5.16,5.16,0,0,1-1-.09,2.46,2.46,0,0,1-1.45-.61l-.09-.09c-.4-.42-4.13-4.22-7.21-6.79a2.53,2.53,0,0,0-1.43-.77.87.87,0,0,0-.67.3c-.61.67.31,1.66.7,2l6.29,6.94a1.11,1.11,0,0,1-.24.43c-.22.31-1,1.07-3.27,1.36a5.78,5.78,0,0,1-.83.05A14.39,14.39,0,0,1,99,154.67a9.31,9.31,0,0,0,.9-4,9.41,9.41,0,0,0-9.39-9.4h-.34c.17-2.37-.16-6.85-4.76-8.82a9.82,9.82,0,0,0-3.93-.87,8,8,0,0,0-2.88.52,7.87,7.87,0,0,0-4.6-3.9,10.15,10.15,0,0,0-3.37-.59,8.9,8.9,0,0,0-5.25,1.68,7.93,7.93,0,0,0-6.18-3,8,8,0,0,0-5.61,2.32c-2-1.49-9.73-6.43-30.54-11.16-1-.22-3.32-.89-4.73-1.3a32.27,32.27,0,0,0-.54,3.41s3.84.92,4.6,1.09c21.25,4.72,28.28,9.63,29.46,10.56a8,8,0,0,0,8.82,10.9,9.25,9.25,0,0,0,6,6.93,7.78,7.78,0,0,0,2.84.55,6.9,6.9,0,0,0,1.81-.22,8.38,8.38,0,0,0,5,4.62,8.24,8.24,0,0,0,3.13.65,7,7,0,0,0,2.43-.44,9.37,9.37,0,0,0,15.41,3,17.66,17.66,0,0,0,8,2.37,9.3,9.3,0,0,0,1.2-.08c3.22-.4,4.71-1.66,5.4-2.63a4.86,4.86,0,0,0,.33-.54,9.34,9.34,0,0,0,2.55.4,8.61,8.61,0,0,0,5.14-1.84,7.11,7.11,0,0,0,3-4.41.2.2,0,0,1,0-.07,8.23,8.23,0,0,0,1.72.18,9.53,9.53,0,0,0,5.27-1.67,7.61,7.61,0,0,0,3.79-6.79,8.57,8.57,0,0,0,1.74.18,9.14,9.14,0,0,0,4.95-1.52,7.24,7.24,0,0,0,3.44-5.6,7.56,7.56,0,0,0-1.09-4.51,203.46,203.46,0,0,1,32.79-10.27c-.09-1.14-.26-2.27-.46-3.4A187.3,187.3,0,0,0,140.45,128.23ZM90.5,157.1A6.38,6.38,0,0,1,84.08,151c0-.3,0-1.08-.7-1.08a1.2,1.2,0,0,0-.78.41,4.49,4.49,0,0,1-3.15,1.42,5.35,5.35,0,0,1-2.08-.45c-3.67-1.48-3.72-4-3.57-5a.91.91,0,0,0-.13-.77l-.22-.2h-.23a1.14,1.14,0,0,0-.64.26,5.4,5.4,0,0,1-3.11,1.11,5,5,0,0,1-1.74-.34,6.72,6.72,0,0,1-4.2-7.8.69.69,0,0,0-.21-.64L63,137.6l-.32.3a5,5,0,0,1-3.46,1.41,5,5,0,1,1,4.94-5.65l.17,1.35.74-1.14a7,7,0,0,1,8-2.85,5.06,5.06,0,0,1,3.54,4.72c.06.65.52.68.61.68a.8.8,0,0,0,.58-.3,5,5,0,0,1,3.69-1.56,7.09,7.09,0,0,1,2.76.63c4.71,2,2.58,8,2.55,8.07-.41,1-.42,1.43,0,1.69l.19.08h.13a3.25,3.25,0,0,0,.92-.24,8.16,8.16,0,0,1,2.51-.55h0a6.43,6.43,0,1,1,0,12.86Z"/><path class="cls-1" d="M211.66,93.38v24.14H202V95.3c0-10.78,5.42-16.14,16.21-16.14,4.86,0,8.57,1.07,11.28,3.21,2.72-2.07,6.43-3.07,11.29-3.07,10.79,0,16.14,5.36,16.07,16.15v22.21h-4.93c-3.14-.22-4.71-1.71-4.71-4.71V93.52c-.21-3.93-2.36-5.86-6.57-5.86s-6.36,1.93-6.43,5.86v24h-9.57V93.38c-.22-3.93-2.36-5.86-6.57-5.86S211.73,89.45,211.66,93.38Z"/><path class="cls-1" d="M303.45,98.16c.28-12.21,6.32-19,19-19h2.87V89l-4.42.09c-5.28,0-7.77,3.41-7.77,8.91v19.64h-9.64Z"/><path class="cls-1" d="M378.47,91h-8.85c.34-7.3,4-12.16,14.8-12.16,10.43,0,15.72,3.42,15.93,10.42v12.86c0,10.43-6.28,15.07-16.5,15.79-9.07.71-15.36-3.5-15.36-11.86.22-9.07,6.79-11.5,16.36-12.43,4.07-.5,6.14-1.71,6.14-3.78-.21-2.15-2.21-3.17-6.14-3.22C380.4,86.56,379,89.23,378.47,91Zm12.67,10.68V98.6a41.79,41.79,0,0,1-7.58,1.88c-3.78.71-5.71,2.5-5.71,5.28.21,3,1.79,4.43,4.79,4.43C387.92,110.19,391.14,107.05,391.14,101.69Z"/><path class="cls-1" d="M441.09,67.1v34.06q0,17-17.71,16.93c-11.71-.22-17.57-6.57-17.57-19.14,0-12.86,5-19.43,15.07-19.79A11.91,11.91,0,0,1,431.67,85V73l0-1.07C434.83,67.22,441.09,67.1,441.09,67.1ZM415.6,98.52c-.07,7.64,2.5,11.5,7.93,11.5s8.14-3.86,8.14-11.5c-.22-7.29-2.86-10.86-8-10.86S415.88,91.23,415.6,98.52Z"/><path class="cls-1" d="M271.93,123.42h2.49v50h-9.5V129.53C264.92,128.11,267.87,123.42,271.93,123.42Z"/><path class="cls-1" d="M323.68,134.53A11.79,11.79,0,0,0,313,140.39v-17h-1.08a9.32,9.32,0,0,0-8.42,4.65v28.46c0,11.35,5.93,17,17.72,16.93,11.71-.22,17.57-6.58,17.57-19.15C338.76,141.46,333.76,134.89,323.68,134.53Zm-2.78,30.85c-5.43,0-8-3.85-7.93-11.49C313.26,146.6,315.9,143,321,143s7.79,3.57,8,10.86C329,161.53,326.33,165.38,320.9,165.38Z"/><path class="cls-1" d="M273.81,108c1.52,1.48,3.7,2.21,6.55,2.21a9,9,0,0,0,5.27-1.53,6.4,6.4,0,0,0,2.71-3.24h8.9q-2.14,6.63-6.55,9.47A19.32,19.32,0,0,1,280,117.78a21,21,0,0,1-7.83-1.39,16.13,16.13,0,0,1-5.91-4,17.86,17.86,0,0,1-3.74-6.13,22.34,22.34,0,0,1-1.31-7.83,21.55,21.55,0,0,1,1.35-7.69,17.73,17.73,0,0,1,9.79-10.25A19,19,0,0,1,280,79a17.48,17.48,0,0,1,8.19,1.82,16.29,16.29,0,0,1,5.74,4.88,20.19,20.19,0,0,1,3.24,7,26.15,26.15,0,0,1,.71,8.19H271.32Q271.53,105.82,273.81,108Zm11.43-19.37c-1.21-1.32-3.05-2-5.52-2a8.72,8.72,0,0,0-4,.82,7.67,7.67,0,0,0-2.57,2,7.45,7.45,0,0,0-1.35,2.56,11.29,11.29,0,0,0-.46,2.42h16.45A11.76,11.76,0,0,0,285.24,88.65Z"/><path class="cls-1" d="M346.66,86.54a7.14,7.14,0,0,0-4.1,1.12,8.81,8.81,0,0,0-2.69,2.87,12.41,12.41,0,0,0-1.48,3.89,20.89,20.89,0,0,0-.43,4.21,20.05,20.05,0,0,0,.43,4.1,12.84,12.84,0,0,0,1.4,3.77,8.1,8.1,0,0,0,2.63,2.77,7.22,7.22,0,0,0,4,1.08,7.47,7.47,0,0,0,5.64-2,9.73,9.73,0,0,0,2.49-5.5h9.85q-1,7.41-5.75,11.29T346.52,118a20.24,20.24,0,0,1-7.66-1.41,16.74,16.74,0,0,1-5.93-3.92,17.75,17.75,0,0,1-3.82-6A20.87,20.87,0,0,1,327.75,99,24.74,24.74,0,0,1,329,91a18,18,0,0,1,3.7-6.41,16.94,16.94,0,0,1,6-4.2,20.22,20.22,0,0,1,8.06-1.51,23.14,23.14,0,0,1,6.36.86,17,17,0,0,1,5.47,2.62,14.24,14.24,0,0,1,3.92,4.39,14,14,0,0,1,1.72,6.22h-10C353.54,88.68,351,86.54,346.66,86.54Z"/><path class="cls-1" d="M448.41,90.39a17,17,0,0,1,9.92-10.14,21.15,21.15,0,0,1,7.91-1.4,21.4,21.4,0,0,1,7.95,1.4,17.25,17.25,0,0,1,6.08,4,17.47,17.47,0,0,1,3.88,6.19,22.85,22.85,0,0,1,1.37,8.09,22.56,22.56,0,0,1-1.37,8.06,17.39,17.39,0,0,1-3.88,6.15,16.91,16.91,0,0,1-6.08,3.92,22,22,0,0,1-7.95,1.36,21.77,21.77,0,0,1-7.91-1.36,17,17,0,0,1-6-3.92,17.39,17.39,0,0,1-3.88-6.15A22.56,22.56,0,0,1,447,98.48,22.85,22.85,0,0,1,448.41,90.39Zm9.27,12.44a11.57,11.57,0,0,0,1.48,3.82,7.85,7.85,0,0,0,2.77,2.69,8.36,8.36,0,0,0,4.31,1,8.6,8.6,0,0,0,4.36-1,7.77,7.77,0,0,0,2.8-2.69,11.57,11.57,0,0,0,1.48-3.82,22.28,22.28,0,0,0,.43-4.35,23,23,0,0,0-.43-4.39,11.27,11.27,0,0,0-1.48-3.81,8.12,8.12,0,0,0-2.8-2.69,8.4,8.4,0,0,0-4.36-1,7.9,7.9,0,0,0-7.08,3.74,11.27,11.27,0,0,0-1.48,3.81,23,23,0,0,0-.43,4.39A22.28,22.28,0,0,0,457.68,102.83Z"/><path class="cls-1" d="M344.34,153.85c.29-12.21,6.32-19,19-19h2.86v9.85l-4.41.1c-5.29,0-7.77,3.41-7.77,8.91v19.64h-9.65Z"/><path class="cls-1" d="M381.21,163.71c1.51,1.47,3.7,2.21,6.55,2.21a9,9,0,0,0,5.27-1.53,6.33,6.33,0,0,0,2.7-3.24h8.9q-2.13,6.61-6.55,9.47a19.26,19.26,0,0,1-10.68,2.85,21.09,21.09,0,0,1-7.83-1.39,16.26,16.26,0,0,1-5.91-4,17.7,17.7,0,0,1-3.74-6.13,22.34,22.34,0,0,1-1.32-7.83,21.51,21.51,0,0,1,1.35-7.69,17.79,17.79,0,0,1,9.8-10.25,19,19,0,0,1,7.65-1.5,17.54,17.54,0,0,1,8.19,1.82,16.33,16.33,0,0,1,5.73,4.87,20,20,0,0,1,3.24,7,25.83,25.83,0,0,1,.71,8.19H378.71Q378.92,161.51,381.21,163.71Zm11.42-19.37q-1.81-2-5.52-2a8.75,8.75,0,0,0-4,.82,7.51,7.51,0,0,0-2.56,2,7.36,7.36,0,0,0-1.35,2.56,11.25,11.25,0,0,0-.47,2.42h16.45A11.67,11.67,0,0,0,392.63,144.34Z"/><rect class="cls-1" x="284.61" y="123.42" width="9.5" height="8.65"/><rect class="cls-1" x="284.61" y="136.42" width="9.5" height="37.04"/></svg>